#N canvas 1049 56 716 792 12;
#X obj 287 220 inlet;
#X floatatom 441 134 3 0 0 0 - - -;
#X obj 366 155 f 0;
#X obj 366 177 + 1;
#X obj 397 154 mod 16;
#X obj 304 243 f 0;
#X obj 304 267 + 1;
#X obj 337 221 t b f;
#X obj 337 243 mod 2;
#X obj 338 267 sel 0;
#X obj 338 293 outlet;
#X obj 44 69 table \$1-skipClock 16;
#X obj 337 198 tabread \$1-skipClock;
#X text 33 53 table of clk ticks to skip;
#X text 104 268 bangs after skipping n ticks;
#X text 319 78 read next value in clk tick table;
#X obj 397 113 r \$1-indexTableMax;
#X floatatom 379 221 3 0 0 0 - - -;
#X obj 221 375 t b b;
#X obj 221 460 f;
#X obj 253 460 + 1;
#X msg 221 395 1;
#X obj 221 419 tgl 15 0 empty empty empty 17 7 0 10 -262144 -1 -1 0
1;
#X msg 265 395 0;
#X msg 266 418 0;
#X obj 265 375 sel 15;
#X obj 206 617 + 1;
#X obj 221 503 random 2;
#X obj 221 522 sel 0 1;
#X obj 242 560 + 1;
#X obj 241 580 * 2;
#X obj 242 541 random 3;
#X obj 206 598 random 3;
#X obj 206 637 tabwrite \$1-skipClock;
#X floatatom 269 670 3 0 0 0 - - -;
#X text 244 664 1-3;
#X text 245 678 2-6;
#X obj 221 481 t b f;
#X obj 389 293 s \$1-nextSkip;
#X obj 366 94 r \$1-nextSkip;
#X obj 221 355 r tableSkip;
#X obj 397 134 t b f;
#X obj 204 336 loadbang;
#X text 77 377 write table of skips;
#X text 260 723 how many skips to read;
#X obj 457 643 f 0;
#X obj 457 663 +;
#X obj 457 558 metro 10;
#X obj 457 494 t b b;
#X msg 457 514 1;
#X obj 457 538 tgl 15 0 empty empty empty 17 7 0 10 -262144 -1 -1 0
1;
#X msg 501 514 0;
#X msg 502 537 0;
#X obj 501 494 sel 15;
#X text 320 495 read table of skips;
#X obj 457 580 f;
#X obj 489 580 + 1;
#X obj 457 603 tabread \$1-skipClock;
#X obj 457 623 t b f;
#X obj 418 703 spigot;
#X obj 457 683 <= 16;
#X obj 418 742 s \$1-indexTableMax;
#X obj 418 722 + 1;
#X text 467 702 don't skip over 16;
#X obj 221 439 metro 10;
#X text 325 40 when tableSkip bangs \, it picks a new rhythm.;
#X text 451 27 rhythm is chosen randomly.;
#X text 311 14 creates one measure of 4:4 1/16th note rhythm.;
#X text 425 475 when done writing;
#N canvas 798 113 632 468 copyrightInfo2020 0;
#X text 74 306 j.raski@gmail.com;
#X text 43 19 This program creates generative music on an electronic
synthesiser. Copyright (C) 2020 Jerry Z. Raski This program is free
software: you can redistribute it and/or modify it under the terms
of the GNU General Public License as published by the Free Software
Foundation \, either version 3 of the License \, or (at your option)
any later version. This program is distributed in the hope that it
will be useful \, but WITHOUT ANY WARRANTY \; without even the implied
warranty of MERCHANTABILITY or FITNESS FOR A PARTICULAR PURPOSE. See
the GNU General Public License for more details. You should have received
a copy of the GNU General Public License along with this program. If
not \, see <https://www.gnu.org/licenses/>.;
#X restore 30 741 pd copyrightInfo2020;
#X connect 0 0 5 0;
#X connect 2 0 3 0;
#X connect 2 0 12 0;
#X connect 3 0 4 0;
#X connect 4 0 2 1;
#X connect 5 0 6 0;
#X connect 5 0 9 0;
#X connect 6 0 8 0;
#X connect 7 0 8 0;
#X connect 7 1 8 1;
#X connect 8 0 5 1;
#X connect 9 0 10 0;
#X connect 9 0 38 0;
#X connect 12 0 7 0;
#X connect 12 0 17 0;
#X connect 16 0 1 0;
#X connect 16 0 41 0;
#X connect 18 0 21 0;
#X connect 18 1 24 0;
#X connect 19 0 20 0;
#X connect 19 0 25 0;
#X connect 19 0 37 0;
#X connect 20 0 19 1;
#X connect 21 0 22 0;
#X connect 22 0 64 0;
#X connect 23 0 22 0;
#X connect 24 0 19 1;
#X connect 25 0 23 0;
#X connect 25 0 48 0;
#X connect 26 0 33 0;
#X connect 26 0 34 0;
#X connect 27 0 28 0;
#X connect 28 0 32 0;
#X connect 28 1 31 0;
#X connect 29 0 30 0;
#X connect 30 0 33 0;
#X connect 30 0 34 0;
#X connect 31 0 29 0;
#X connect 32 0 26 0;
#X connect 37 0 27 0;
#X connect 37 1 33 1;
#X connect 39 0 2 0;
#X connect 40 0 18 0;
#X connect 41 0 4 0;
#X connect 41 1 4 1;
#X connect 42 0 18 0;
#X connect 45 0 46 0;
#X connect 46 0 45 1;
#X connect 46 0 60 0;
#X connect 47 0 55 0;
#X connect 48 0 49 0;
#X connect 48 1 52 0;
#X connect 49 0 50 0;
#X connect 50 0 47 0;
#X connect 51 0 50 0;
#X connect 52 0 55 1;
#X connect 52 0 45 1;
#X connect 53 0 51 0;
#X connect 55 0 56 0;
#X connect 55 0 57 0;
#X connect 55 0 53 0;
#X connect 55 0 59 0;
#X connect 56 0 55 1;
#X connect 57 0 58 0;
#X connect 58 0 45 0;
#X connect 58 1 46 1;
#X connect 59 0 62 0;
#X connect 60 0 59 1;
#X connect 62 0 61 0;
#X connect 64 0 19 0;
