#N canvas 1037 387 756 508 10;
#X obj 201 78 t b f;
#X obj 228 96 int;
#X obj 201 59 f 1;
#X obj 131 22 loadbang;
#X obj 201 40 clip 0 4;
#X obj 51 132 inlet~;
#X obj 52 386 outlet~;
#N canvas 158 185 450 300 stage 0;
#X obj 120 46 inlet~;
#X obj 216 66 inlet;
#X obj 121 122 outlet~;
#X obj 121 103 vcf~;
#X obj 132 65 r~ \$0-freq;
#X obj 142 84 r \$1-q;
#X obj 216 85 switch~ 64 1 1;
#X connect 0 0 3 0;
#X connect 1 0 6 0;
#X connect 3 0 2 0;
#X connect 4 0 3 1;
#X connect 5 0 3 2;
#X restore 52 216 pd stage;
#X obj 119 217 == 0;
#X obj 85 237 *~ 1;
#X obj 52 251 +~;
#N canvas 158 185 450 300 stage 0;
#X obj 120 46 inlet~;
#X obj 216 66 inlet;
#X obj 121 122 outlet~;
#X obj 121 103 vcf~;
#X obj 132 65 r~ \$0-freq;
#X obj 142 84 r \$1-q;
#X obj 216 85 switch~ 64 1 1;
#X connect 0 0 3 0;
#X connect 1 0 6 0;
#X connect 3 0 2 0;
#X connect 4 0 3 1;
#X connect 5 0 3 2;
#X restore 52 273 pd stage;
#X obj 119 274 == 0;
#X obj 85 294 *~ 1;
#X obj 52 308 +~;
#N canvas 158 185 450 300 stage 0;
#X obj 120 46 inlet~;
#X obj 216 66 inlet;
#X obj 121 122 outlet~;
#X obj 121 103 vcf~;
#X obj 132 65 r~ \$0-freq;
#X obj 142 84 r \$1-q;
#X obj 216 85 switch~ 64 1 1;
#X connect 0 0 3 0;
#X connect 1 0 6 0;
#X connect 3 0 2 0;
#X connect 4 0 3 1;
#X connect 5 0 3 2;
#X restore 52 330 pd stage;
#X obj 124 329 == 0;
#X obj 84 351 *~ 1;
#X obj 52 365 +~;
#X obj 116 196 >= 2;
#X obj 110 255 >= 3;
#X obj 115 310 >= 4;
#N canvas 158 185 450 300 stage 0;
#X obj 120 46 inlet~;
#X obj 242 46 inlet;
#X obj 121 122 outlet~;
#X obj 121 103 vcf~;
#X obj 132 65 r~ \$0-freq;
#X obj 146 84 r \$1-q;
#X obj 242 65 switch~ 64 1 1;
#X connect 0 0 3 0;
#X connect 1 0 6 0;
#X connect 3 0 2 0;
#X connect 4 0 3 1;
#X connect 5 0 3 2;
#X restore 52 159 pd stage;
#X obj 124 156 == 0;
#X obj 85 180 *~ 1;
#X obj 52 194 +~;
#X obj 115 137 >= 1;
#X obj 413 341 s~ \$0-freq;
#X obj 452 282 tctofc;
#X obj 413 302 lop~ 1;
#X obj 622 209 t b f;
#X obj 622 230 -;
#X obj 413 245 *;
#X obj 413 283 sig~;
#X obj 413 321 mtof~;
#X obj 361 169 inlet;
#X text 359 152 new_frequency;
#X obj 413 207 random 1e+008;
#X obj 413 226 * 1e-008;
#X obj 622 190 ftom;
#X obj 516 191 ftom;
#X obj 413 264 +;
#X obj 201 21 r \$1-n_stages;
#X obj 452 264 r \$1-filter_tc;
#X obj 516 172 r \$1-freq_high;
#X obj 622 171 r \$1-freq_low;
#X obj 361 188 route float bang;
#X text 306 40 inlets: audio in (signal in) \, new band center frequency
(bang for random or frequency in Hz to set explictly);
#X text 306 17 arguments: control panel name \, max delay time in ms
;
#X obj 361 207 ftom;
#X obj 361 340 outlet;
#X text 306 72 outlets: audio out \, filter frequency out (good for
controlling further fbank~ units \, for a vocoder or something);
#X text 283 120 acreil did this. I modified this by taking off the
phaser and delay \, I think.;
#X connect 0 1 1 0;
#X connect 1 0 19 0;
#X connect 1 0 20 0;
#X connect 1 0 21 0;
#X connect 1 0 26 0;
#X connect 2 0 0 0;
#X connect 3 0 2 0;
#X connect 4 0 2 0;
#X connect 5 0 22 0;
#X connect 5 0 24 0;
#X connect 7 0 10 0;
#X connect 8 0 9 1;
#X connect 9 0 10 1;
#X connect 10 0 11 0;
#X connect 10 0 13 0;
#X connect 11 0 14 0;
#X connect 12 0 13 1;
#X connect 13 0 14 1;
#X connect 14 0 15 0;
#X connect 14 0 17 0;
#X connect 15 0 18 0;
#X connect 16 0 17 1;
#X connect 17 0 18 1;
#X connect 18 0 6 0;
#X connect 19 0 7 1;
#X connect 19 0 8 0;
#X connect 20 0 11 1;
#X connect 20 0 12 0;
#X connect 21 0 15 1;
#X connect 21 0 16 0;
#X connect 22 0 25 0;
#X connect 23 0 24 1;
#X connect 24 0 25 1;
#X connect 25 0 7 0;
#X connect 25 0 9 0;
#X connect 26 0 22 1;
#X connect 26 0 23 0;
#X connect 28 0 29 1;
#X connect 29 0 34 0;
#X connect 30 0 31 0;
#X connect 30 1 31 1;
#X connect 31 0 32 1;
#X connect 32 0 41 0;
#X connect 33 0 29 0;
#X connect 34 0 27 0;
#X connect 35 0 46 0;
#X connect 37 0 38 0;
#X connect 38 0 32 0;
#X connect 39 0 30 0;
#X connect 39 0 41 1;
#X connect 40 0 31 0;
#X connect 41 0 33 0;
#X connect 41 0 50 0;
#X connect 42 0 4 0;
#X connect 43 0 28 0;
#X connect 44 0 40 0;
#X connect 45 0 39 0;
#X connect 46 0 49 0;
#X connect 46 1 37 0;
#X connect 49 0 33 0;
#X connect 49 0 50 0;
