#N canvas 390 163 450 361 12;
#X obj 151 72 inlet;
#X obj 151 92 unpack f f;
#X obj 151 111 sqrt;
#X obj 151 131 sqrt;
#X obj 151 149 pack;
#X obj 240 92 inlet;
#X obj 151 169 vline~;
#X obj 152 190 *~;
#X obj 153 211 *~;
#X obj 152 231 outlet~;
#X text 113 266 quartic envelope helper;
#X connect 0 0 1 0;
#X connect 1 0 2 0;
#X connect 1 1 4 1;
#X connect 2 0 3 0;
#X connect 3 0 4 0;
#X connect 4 0 6 0;
#X connect 5 0 4 1;
#X connect 6 0 7 0;
#X connect 6 0 7 1;
#X connect 7 0 8 0;
#X connect 7 0 8 1;
#X connect 8 0 9 0;
