#N canvas 1195 352 450 300 12;
#X obj 155 93 inlet~;
#X obj 172 119 abs~;
#X obj 173 140 +~ 1;
#X obj 156 161 /~;
#X obj 155 181 outlet~;
#X text 68 60 x/(1+abs(x)) gentler than tanh or atan;
#X connect 0 0 1 0;
#X connect 0 0 3 0;
#X connect 1 0 2 0;
#X connect 2 0 3 1;
#X connect 3 0 4 0;
